<?xml version="1.0" encoding="UTF-8"?>
<svg width="1299px" height="1009px" viewBox="0 0 1299 1009" version="1.1" xmlns="http://www.w3.org/2000/svg" xmlns:xlink="http://www.w3.org/1999/xlink" xmlns:sketch="http://www.bohemiancoding.com/sketch/ns">
    <!-- Generator: Sketch 3.4.2 (15855) - http://www.bohemiancoding.com/sketch -->
    <title>Untitled 6</title>
    <desc>Created with Sketch.</desc>
    <defs></defs>
    <g id="Page-1" stroke="none" stroke-width="1" fill="none" fill-rule="evenodd" sketch:type="MSPage">
        <g id="book" sketch:type="MSLayerGroup">
            <g id="Page-1" sketch:type="MSShapeGroup">
                <g id="Group">
                    <path d="M612.401686,0 L14.4950495,254.839865 C14.4950495,254.839865 141.392561,405.410918 204.841316,480.696445 C303.117112,597.306218 499.668704,830.525766 499.668704,830.525766 L1236.0427,466.437479 L612.401686,0 L612.401686,0 Z" id="Path-10" fill="#FFFFFF"></path>
                    <path d="M19.6475866,256.099417 L0.87762995,426.1389 L501.268255,1008.94339 L1256.52545,623.039385 L1227.96001,593.079037 L509.379254,941.677668 L511.983834,823.449633 L19.6475866,256.099417 L19.6475866,256.099417 Z" id="Path-11" fill="#FFFFFF"></path>
                    <path d="M1183.00271,627.242889 L1280.24977,577.313692 L1249.00897,553.254839 L502.344059,919.062626" id="Path-12" stroke="#FFFFFF" stroke-width="20"></path>
                    <path d="M1131.81706,610.812107 L1229.06412,560.882911 L1197.82333,536.824057 L451.158416,902.631845" id="Path-12" stroke="#FFFFFF" stroke-width="20"></path>
                    <path d="M1131.81706,569.147834 L1229.06412,519.218638 L1197.82333,495.159785 L451.158416,860.967572" id="Path-12" stroke="#FFFFFF" stroke-width="20"></path>
                </g>
                <path d="M325.68107,266.555356 L314.494067,272.401799 C305.889987,276.818723 296.61586,280.733544 288.523391,285.460999 C291.404091,292.519312 296.771149,299.252222 301.249101,305.583892 L315.260755,325.395891 C324.559169,338.987135 333.853012,352.580971 343.382811,366.064837 C351.17992,377.097091 359.463138,387.896543 367.753411,398.691152 C372.91238,405.514982 377.228487,413.016138 383.380948,419.361288 C389.163457,417.642704 396.756578,412.848409 400.325393,410.837012 C399.601125,408.453427 397.145553,406.911773 395.432686,405.00864 C393.725105,402.735039 392.143965,400.399359 390.694773,398.010966 C387.567869,393.240021 384.341828,388.790207 381.115109,384.339457 C374.809666,375.642094 368.745474,366.829964 362.345419,358.449631 C368.897623,353.714431 377.374423,351.604496 384.068665,347.081937 C382.908359,342.498795 378.391914,339.490604 375.133264,334.272615 C366.89316,335.711671 360.818406,341.811168 352.374021,344.695661 C336.973789,325.621186 329.262361,313.246328 314.226527,292.922672 C321.171829,288.142846 330.666495,285.167248 338.499032,281.600504 C340.802719,280.551461 345.481826,278.955243 346.420403,276.924667 C347.356142,274.896665 343.568257,271.546023 342.511775,270.157375 C340.168968,267.484075 338.05642,264.706403 335.943873,261.92873 C332.756858,261.761151 328.417818,265.321589 325.68107,266.555356 L325.68107,266.555356 Z M378.469434,299.920738 C383.408416,306.737734 387.48337,313.689448 392.7367,320.091042 C398.448922,327.083781 403.596775,334.611535 409.550692,341.489105 C415.052453,347.770977 421.466186,353.075398 426.097792,359.499092 C429.265774,364.465643 437.571433,369.12238 443.079586,371.867722 C448.19934,374.524478 454.075313,376.819922 460.120163,377.129363 C474.664941,378.157456 488.697618,369.430543 495.46579,359.950724 C501.01669,351.62117 500.444747,341.457402 496.728515,332.561595 C493.619371,326.050141 489.040777,321.046458 484.304847,315.052477 C480.45039,309.704145 477.713607,304.093543 473.446549,298.673904 C464.58363,286.676978 455.780757,274.39435 445.483695,263.072363 C437.681103,254.287342 424.629679,244.216638 411.223028,241.902248 C397.954665,239.231245 381.083218,240.781917 372.010015,248.052701 C363.433548,255.222583 360.278014,266.218503 363.497745,277.677387 C367.593451,285.414663 373.224751,292.712025 378.469434,299.920738 L378.469434,299.920738 Z M384.431726,262.01399 C389.28668,253.980447 404.94871,252.665105 414.968926,257.854611 C428.496739,264.845567 433.120836,277.785305 443.193485,287.148774 C453.128104,296.300624 460.29288,307.288889 467.996856,317.752539 C471.72237,323.449016 475.688556,329.037457 478.025797,335.131363 C479.977772,339.547693 482.009461,343.658943 479.901986,348.160119 C474.664606,357.673584 460.394922,362.418889 448.903332,356.910603 C445.584565,355.271628 442.936823,352.771246 440.290736,350.269363 C438.440239,347.924519 435.531485,346.354542 433.682763,344.00809 C428.953089,339.268733 425.912232,333.725955 422.14573,328.529192 C414.299755,317.748986 405.264202,307.527501 397.412723,296.750732 C393.404851,291.668843 388.234288,286.323578 386.244188,280.579176 C384.237983,275.640461 381.14668,270.143401 382.827292,265.127485 C383.009476,263.942395 383.560054,262.870216 384.431726,262.01399 L384.431726,262.01399 Z M568.067877,327.316546 C573.248568,326.620925 578.104415,325.155275 582.372538,323.002106 C589.557478,319.50288 599.064999,315.400055 601.080174,308.35806 C603.062704,301.345651 601.643562,293.106121 599.729356,285.905671 C598.143623,279.13387 594.018834,272.596625 587.856912,267.036438 C582.421177,261.804097 578.120358,256.293859 572.511402,250.883347 C567.358633,246.296162 562.809452,240.900929 557.663202,236.314043 C551.651571,230.829434 545.642923,225.340568 539.872662,219.741084 C535.353744,214.957106 530.137117,210.508445 524.355148,206.495756 C517.903743,202.230967 511.751153,197.567959 504.402606,194.723107 C497.306439,191.760042 491.427827,193.12668 484.31147,192.477428 C470.806293,190.81878 459.378227,203.185176 454.893011,210.646133 C453.416393,213.650427 451.106078,215.734489 450.799662,218.995353 C450.624991,221.445764 451.034745,223.998945 452.009821,226.528883 C453.816504,232.231756 456.003861,238.028665 459.570954,243.198393 C463.46107,248.74569 468.188056,253.383601 472.776615,258.609536 C477.365174,263.83547 482.591115,269.028218 487.582497,274.328116 C498.137459,285.18353 508.776633,295.725134 520.085181,306.215417 C525.417042,311.079335 531.001096,315.824774 536.666744,320.25412 C538.969105,322.062033 540.946276,324.292071 543.904697,325.250588 C546.866312,326.20621 550.227694,326.424706 552.706914,327.611497 C558.151395,327.362325 562.863232,328.256602 568.067877,327.316546 L568.067877,327.316546 Z M477.61829,236.994914 C472.661113,228.576979 471.010241,219.183724 481.25888,214.003055 C486.442719,211.127711 494.014344,209.757783 501.221006,211.122922 C507.243814,212.250069 512.781822,216.69587 516.664166,220.088305 C527.767267,228.95536 536.131735,238.828159 546.622138,247.707582 C557.131347,256.569961 567.38334,266.590588 574.705495,277.222253 C580.608001,285.661517 581.867284,297.134518 572.217151,304.683363 C561.890046,313.102109 548.352409,309.055736 539.079517,301.880034 C528.997887,293.76303 522.116742,283.066838 511.748068,275.337387 C505.83898,271.020137 501.077172,264.587044 496.667504,259.302859 C492.183866,254.310791 486.834183,249.463027 482.989113,244.44135 C481.06947,241.934531 479.377865,239.31828 477.61829,236.994914 L477.61829,236.994914 Z M681.292951,274.566028 C689.601045,270.001836 699.690117,265.348425 701.800064,257.862285 C705.164718,245.410633 690.455261,230.66699 680.358899,221.152118 C668.966574,210.465643 655.614561,200.955484 643.051642,190.810524 C631.607921,181.660655 622.087748,171.368775 609.455432,163.00957 C603.703381,159.324204 597.95906,156.892127 590.575328,156.710275 C583.372171,156.351552 576.49343,157.051248 570.371311,158.772253 C563.484613,160.868287 557.273332,163.924124 550.114498,166.387992 C546.96997,167.55229 534.757766,170.258873 536.394378,173.850096 C537.47531,175.910434 540.811383,178.226021 542.578185,179.976391 C544.400866,182.149829 546.080691,184.369767 547.610003,186.627338 C551.859232,191.849169 556.744014,197.037917 561.217786,202.160124 C569.672508,213.295291 579.397299,224.030974 590.290118,234.202231 C600.503269,244.385464 611.68272,254.108453 622.146021,264.168854 C626.984583,268.792243 631.449168,273.598365 635.508801,278.561062 C637.115101,280.683046 638.561675,282.856623 639.840865,285.071562 C641.88781,287.477152 644.003553,287.75374 647.355036,289.259184 C658.960363,284.659232 670.929482,280.39326 681.292951,274.566028 L681.292951,274.566028 Z M563.7483,179.286869 C570.020037,176.176242 581.159396,171.864558 589.773498,172.242675 C596.892677,172.791696 602.919354,177.129776 607.85886,180.442187 C614.131784,184.660972 646.790626,215.057853 657.73744,225.246488 C664.85287,231.8691 675.070421,239.319993 676.393385,247.440482 C677.765727,258.132498 661.055628,263.363554 650.507405,268.457052 C648.790086,269.286306 627.10054,245.994171 624.610434,243.566441 C614.638775,232.805657 603.943894,222.388693 593.956268,211.642381 C588.539881,205.697104 582.708192,199.690726 577.752156,193.539095 C573.567175,188.815306 568.458106,184.522382 564.049353,179.908993 C563.875047,179.738444 563.517901,179.391801 563.7483,179.286869 L563.7483,179.286869 Z M523.725554,604.66096 C528.508133,602.727195 533.157125,600.549694 537.644258,598.142411 C536.963271,594.586708 533.515804,591.933033 532.011184,588.81836 C530.375644,586.047417 477.484005,469.148487 474.582391,462.913065 C472.571667,457.881204 473.174683,450.721568 468.083011,447.241632 C461.975999,448.919151 456.789917,453.703628 450.473783,456.033241 C449.88339,460.453085 453.134807,464.879901 455.024559,468.888506 L460.858448,481.666726 C465.084033,490.851588 468.365633,500.251392 472.142328,509.397835 C475.640218,518.70084 481.115746,527.276928 485.107705,536.333708 L490.86087,548.387359 C492.392026,552.050636 495.284891,555.565636 495.591454,559.588084 C485.385769,554.566669 478.613725,546.084429 470.572972,539.371725 C462.116763,532.023855 454.470393,524.252112 446.199902,517.07264 C437.95123,509.873392 430.61572,501.923795 422.663283,494.558397 C419.567194,491.1237 410.533098,478.189858 406.948951,477.493006 C401.19261,480.089482 396.713672,484.544711 390.584449,487.606537 C390.922413,489.109664 391.02477,491.276476 392.267089,492.600579 C393.227899,493.509488 401.787672,499.503202 404.026788,502.276252 C408.594768,506.930869 412.909521,511.711107 417.48859,516.355674 C428.846341,526.748114 439.719294,537.37372 451.951014,547.285718 C463.258789,556.79503 475.799621,564.831418 486.9431,574.412563 C492.872254,579.150671 521.593444,603.265194 523.725554,604.66096 L523.725554,604.66096 Z M588.462598,513.509608 C580.029989,504.417487 572.138189,495.042989 564.093718,485.471694 C557.452053,477.645498 550.238979,469.561414 543.865037,461.598011 C535.624621,451.302693 522.618406,435.503029 516.170642,431.92879 C510.274798,433.518807 501.7241,436.707413 498.240038,440.907784 C499.712139,445.087149 504.571796,448.113242 507.433014,451.32176 C510.754846,455.118311 513.924628,458.717502 516.989273,462.643263 L529.554318,478.738881 C537.326804,488.223066 544.989896,498.036127 552.652987,507.849189 C563.343155,521.055613 573.649857,534.736977 585.163167,547.511009 L594.541746,557.525487 C596.932462,559.588488 598.168595,563.646548 603.214756,562.642366 C609.796805,561.100764 614.421269,555.612034 619.91984,552.706251 C614.940146,544.561544 607.772117,537.571081 601.854904,530.197679 C597.609057,524.428308 593.248178,518.996026 588.462598,513.509608 L588.462598,513.509608 Z M637.840378,437.032367 C640.381772,426.552702 639.058413,416.989157 630.997295,408.438872 C627.179829,404.189908 621.757283,399.408179 615.695862,396.824449 C610.65724,394.527001 604.323812,393.680937 598.590117,393.065972 C586.060909,391.816407 572.171017,396.067013 561.570544,400.282301 C555.963938,402.498402 550.572513,405.010537 545.427913,407.80517 C538.953292,411.307433 544.290173,415.137788 547.522504,419.47802 C563.867231,440.550696 582.559571,460.43219 601.023412,480.415341 C609.706963,490.412924 618.665812,500.27109 626.700711,510.873865 C630.399655,515.796693 634.369418,520.577956 638.612216,525.215646 C640.791448,527.366436 643.359942,529.037032 644.834222,531.283799 C646.148973,533.339986 647.1885,535.541729 650.498957,535.718627 C657.13974,532.759618 664.265641,530.366868 670.752808,527.211918 C677.629711,523.576347 684.769043,521.170989 689.956819,516.51238 C699.369831,507.987158 702.968631,495.72946 700.705726,486.035896 C697.219174,473.739459 685.510124,463.849642 675.624673,454.629708 C670.773829,450.106901 665.456902,444.200437 658.1893,441.727908 C651.69943,439.43534 644.844009,437.85447 637.840378,437.032367 L637.840378,437.032367 Z M659.123528,511.692938 C646.045432,500.488441 636.982288,486.638478 625.813031,474.434254 C622.969115,471.545218 619.965106,468.466112 617.38849,465.438702 C615.939143,463.735784 610.806552,460.3844 613.396225,458.515926 C617.567674,455.830955 625.962946,454.506073 631.541768,452.995615 C647.779649,448.70835 658.698257,461.499976 666.099346,469.874675 C673.433861,477.739115 681.836422,488.584612 677.070801,498.98765 C672.935069,504.545813 666.649858,508.996359 659.123528,511.692938 L659.123528,511.692938 Z M604.284536,439.018871 C603.499227,439.41896 596.854138,443.07572 597.497819,443.833002 C592.590902,439.820729 589.873195,434.424121 585.490881,430.144158 C581.796915,426.522711 578.348974,422.753108 575.160638,418.853795 C583.445601,413.871523 594.370747,408.101687 605.001136,412.17795 C614.062949,415.676637 621.671681,422.601301 615.313573,430.425659 C612.271918,433.867254 608.148347,436.508833 604.284536,439.018871 L604.284536,439.018871 Z M722.656995,431.883105 C721.581275,430.822693 720.638619,429.692267 719.840743,428.506431 C719.518051,427.330833 725.297626,424.609852 726.632644,423.919318 C730.465097,421.668983 734.469707,419.597785 738.127344,417.170725 C739.915216,415.711081 742.745901,415.317309 744.5333,413.858094 C742.937786,410.127424 740.236549,406.687547 736.627626,403.778799 C731.329932,405.704796 726.116762,408.120636 720.728829,410.353493 C717.202125,411.632876 714.163379,415.070968 710.651275,415.538957 C706.005808,416.052586 703.932867,410.15198 702.13935,407.859376 C700.253115,405.882086 698.275137,404.219225 696.557499,402.418091 C690.465613,396.438219 684.547918,390.637191 678.460818,384.654533 C674.260337,380.648817 668.859109,376.182932 666.038099,371.215112 C672.740596,367.841919 678.923243,363.933946 685.706294,360.256031 C692.662269,356.756556 700.319526,353.962159 705.612236,349.184924 C701.833539,345.802434 698.136292,342.114841 693.864306,339.76939 C678.07571,346.6091 664.275324,354.304667 649.610635,361.905036 C643.385807,365.284792 634.523738,367.84778 639.85287,373.980672 C648.390014,383.568019 658.053199,392.319067 667.114265,401.639342 C679.752863,413.95953 691.607146,426.677355 703.36336,439.715344 C708.273563,444.984934 713.183765,450.254525 717.993267,455.846664 C721.954703,460.531594 727.000649,464.649147 731.506558,469.048378 C736.352757,473.809528 741.434938,479.258417 747.382502,483.436915 C754.79791,485.20904 769.773846,474.853038 775.549275,471.799784 C785.828639,466.095822 796.131779,459.572581 807.457977,454.930847 C807.820941,451.514852 802.164535,442.956427 796.383011,443.852865 C783.751363,449.971762 772.024309,458.295115 757.929654,462.474763 C756.937756,462.726489 726.007437,434.982967 722.656995,431.883105 L722.656995,431.883105 Z M847.128232,352.662137 C829.537409,351.482106 810.580355,352.28076 793.698579,350.664323 C785.515544,349.848916 776.742688,349.579176 770.722648,345.801527 C763.281699,341.421872 760.418339,334.209333 761.229606,327.507763 C761.773926,323.969073 764.09413,320.763348 767.786603,318.450616 C772.514009,316.256888 778.123543,315.06151 783.989094,314.993154 C787.864842,314.865487 791.89266,315.958399 795.67564,317.187516 C798.195421,318.000651 801.199569,321.438316 804.131962,321.518813 C809.743847,321.805131 821.926882,313.021474 822.908323,309.923039 C823.719996,305.614289 805.11574,300.717287 799.685561,298.774709 C794.707464,296.86145 784.753265,296.91789 779.240049,297.339877 C773.223695,298.0101 767.372762,299.894144 761.711698,301.941705 C745.478988,308.744875 735.913967,321.10839 737.037181,333.397009 C738.053698,344.984165 752.334181,357.259284 765.817064,362.535217 C778.009483,366.866964 792.029323,366.279471 805.853683,366.562993 C824.227192,367.114029 842.079714,368.160761 858.925921,372.328905 C874.214975,376.486863 887.137404,386.873995 874.865528,399.136414 C863.244863,410.554264 842.765692,407.756034 834.406952,399.121023 C829.3512,399.902615 825.204589,402.327585 821.1503,404.443808 C816.01365,407.923189 812.230864,409.099498 815.001796,413.777107 C817.947017,418.633906 830.024979,422.964387 837.266531,424.223751 C845.887511,425.550062 858.739711,425.166244 867.799475,422.776563 C877.424235,420.082582 886.786251,414.338137 893.928922,408.963913 C900.142749,403.559624 905.560542,395.142946 906.832584,388.925382 C907.789694,382.091633 903.527337,377.216864 899.342279,372.039204 C896.598269,367.941371 892.46803,364.337734 887.291267,361.509538 C876.970612,355.85298 861.174849,353.541955 847.128232,352.662137 L847.128232,352.662137 Z" id="Shape" fill="#000000"></path>
            </g>
        </g>
    </g>
</svg>