<?xml version="1.0" encoding="UTF-8"?>
<svg width="2039px" height="1061px" viewBox="0 0 2039 1061" version="1.1" xmlns="http://www.w3.org/2000/svg" xmlns:xlink="http://www.w3.org/1999/xlink" xmlns:sketch="http://www.bohemiancoding.com/sketch/ns">
    <!-- Generator: Sketch 3.4.2 (15855) - http://www.bohemiancoding.com/sketch -->
    <title>Untitled 7</title>
    <desc>Created with Sketch.</desc>
    <defs></defs>
    <g id="Page-1" stroke="none" stroke-width="1" fill="none" fill-rule="evenodd" sketch:type="MSPage">
        <path d="M678.040368,610.526463 C500.57489,758.847451 500.077938,758.885936 500.077938,758.885936 C500.077938,758.885936 456.469964,731.645593 425.367785,754.411693 C407.848128,767.74072 407.927567,776.600939 411.754306,781.337466 C415.628693,786.132968 421.104354,788.036361 431.153848,781.585106 C444.037793,773.314279 455.512871,786.132971 455.512871,786.132971 L469.83915,798.876365 C469.83915,798.876365 469.839152,798.876362 115.58753,1077.4005 C130.004164,1089.13327 179.910211,1158.99436 428.975289,963.563311 C510.626041,902.516826 443.412985,952.626804 524.145818,890.874441 C512.72763,852.724576 512.72763,854.886391 512.72763,854.886391 C512.72763,854.886391 512.980391,855.194683 538.95399,887.260233 C547.600456,897.934676 563.132304,906.147763 581.768848,890.874431 C600.405392,875.601099 591.383283,867.251633 591.383283,867.251633 C591.383283,867.251633 578.984577,867.251643 566.381735,852.724565 C553.723003,838.133064 556.750567,831.183277 556.750567,831.183277 C556.750567,831.183277 556.750567,831.183284 745.396633,670.9689 C758.037959,658.854645 763.112895,632.653385 745.396633,612.745178 C727.680371,592.836972 704.124502,589.438623 678.040368,610.526463 Z M478.84118,810.140615 L144.209968,1073.47843 C144.209968,1073.47843 184.658865,1143.95528 507.89866,888.250791 C508.015787,888.224019 496.229487,832.4449 496.229487,832.4449 L478.84118,810.140615 Z" id="Path-9" fill="#000000" sketch:type="MSShapeGroup" transform="translate(436.223358, 847.644781) rotate(26.000000) translate(-436.223358, -847.644781) "></path>
        <path d="M931.520084,192.198621 C931.520084,192.198621 941.934864,171.920827 987.423601,171.920829 C987.921932,171.897595 973.54312,92.3354216 973.54312,92.3354216 C973.54312,92.3354216 1015.53668,86.4752074 1052.55944,87.0587144 C1065.97661,87.2701793 1124.86289,94.7203373 1124.86289,94.7203373 C1124.86289,94.7203373 1101.65003,176.606483 1101.88777,175.244275 C1134.51734,181.177321 1152.50904,192.64465 1152.06738,200.074692 L1152.67823,239.199439 C1152.67823,239.199439 1149.76261,249.349954 1134.51735,254.063464 C1119.27208,258.776975 1108.32443,258.759647 1108.32443,258.759647 L1099.37829,422.086298 C1099.37829,422.086298 1139.79406,462.991611 1160.433,476.755237 C1181.07194,490.518864 1190.26936,506.92518 1194.94821,532.121672 C1199.62706,557.318164 1184.14352,839.197438 1184.14352,839.197438 C1184.14352,839.197438 1172.88829,913.723345 1099.3783,932.577391 C1025.86831,951.431437 951.431206,946.98003 951.431206,946.98003 C951.431206,946.98003 866.596658,954.704473 850.970153,874.080891 C835.343648,793.457309 846.074686,542.926358 846.074686,542.926358 C846.074686,542.926358 839.19504,478.258537 902.446208,450.172417 C965.697376,422.086296 964.735613,334.933984 964.735613,334.933984 L960.00044,252.651144 L936.710146,245.273285 C936.710146,245.273285 920.446799,243.336758 925.983441,217.76769 C931.520082,192.198622 931.520084,192.198621 931.520084,192.198621 Z M952.072382,209.532041 C952.072382,198.250806 964.81576,186.934911 984.220006,186.934911 C1009.85406,186.934911 1054.08665,187.782065 1101.36247,196.500567 C1124.46648,200.761357 1131.64506,201.237907 1131.64505,220.230587 C1131.64504,239.223267 1117.21642,241.692662 1101.36247,241.692662 C1085.50852,241.692662 957.975103,232.209319 957.975103,232.209319 C957.975103,232.209319 952.072382,229.332691 952.072382,209.532041 Z M994.938047,253.274991 L1077.06059,258.930772 C1077.06059,258.930772 1064.04557,388.2384 1069.31232,423.728229 C1074.7125,460.117147 1085.35473,456.915598 1124.14806,479.569048 C1162.94139,502.222498 1158.08274,522.83978 1158.28419,522.837614 C1027.83515,541.890945 995.977792,541.501041 880.832503,518.711125 C880.823838,518.535668 874.537712,481.854321 916.915996,463.180063 C959.29428,444.505805 972.061487,426.806308 983.994728,411.517721 C986.979663,397.606796 999.328804,334.472597 994.938047,253.274991 Z M879.519825,834.726533 C950.31348,843.965103 1034.7343,844.58895 1149.8016,816.164914 C1155.88628,858.458718 1129.54847,908.178719 1080.38778,921.28316 C1056.65126,927.610447 973.569359,936.807789 941.887211,927.610443 C887.049313,921.701224 884.207343,877.217456 879.519825,834.726533 Z M899.784027,614.963376 L920.06989,604.890844 L943.186893,637.811778 L983.847431,615.539568 L991.686677,623.335491 L957.474725,661.730251 L1006.59186,728.611865 L980.06969,735.851091 L934.57217,687.227837 L909.629114,711.211295 L896.705947,704.879679 L922.946518,665.282714 L899.784027,614.963376 Z M1030.04678,610.358171 L1051.26625,600.68854 L1087.56419,646.422168 L1116.14635,615.621881 L1129.93164,624.765141 L1100.89459,664.024189 L1145.35886,725.154712 L1116.52109,734.770189 L1081.31705,694.573204 L1054.86636,719.791359 L1044.08117,707.814793 L1066.19092,672.953001 L1030.04678,610.358171 Z" id="Path-12" fill="#000000" sketch:type="MSShapeGroup" transform="translate(1019.155205, 517.227917) rotate(-1.000000) translate(-1019.155205, -517.227917) "></path>
        <path d="M1444.52614,458.769979 C1444.52614,458.769979 1451.3065,445.568463 1480.92118,445.568464 C1481.24561,445.553338 1553.65263,451.731447 1553.8074,450.844604 C1575.05034,454.707214 1588.39727,459.060359 1588.10974,463.897562 L1588.50742,489.36907 C1588.50742,489.36907 1586.60926,495.977391 1576.68408,499.046043 C1566.75891,502.114694 1559.63163,502.103413 1559.63163,502.103413 L1553.80739,608.434478 C1553.80739,608.434478 1580.1194,635.065193 1593.55603,644.02577 C1606.99267,652.986347 1612.98049,663.667403 1616.02658,680.071154 C1619.07267,696.474906 1608.99237,879.987658 1608.99237,879.987658 C1608.99237,879.987658 1601.66484,928.506494 1553.8074,940.781103 C1505.94996,953.055712 1457.48894,950.157699 1457.48894,950.157699 C1457.48894,950.157699 1402.25883,955.186567 1392.08546,902.697942 C1381.91209,850.209318 1388.89835,687.105363 1388.89835,687.105363 C1388.89835,687.105363 1384.41947,645.004468 1425.59808,626.719472 C1466.77668,608.434477 1466.15055,551.695432 1466.15055,551.695432 L1463.06779,498.126575 L1447.90504,493.323344 C1447.90504,493.323344 1437.31706,492.062602 1440.9216,475.41629 C1444.52613,458.769979 1444.52614,458.769979 1444.52614,458.769979 Z M1457.90636,470.05461 C1457.90636,462.710152 1466.20272,455.343129 1478.83553,455.343129 C1495.52415,455.343129 1524.32103,455.894655 1555.09916,461.570688 C1570.14063,464.344604 1574.81413,464.654853 1574.81412,477.019718 C1574.81412,489.384582 1565.42061,490.99224 1555.09916,490.99224 C1544.77771,490.99224 1461.74923,484.818269 1461.74923,484.818269 C1461.74923,484.818269 1457.90636,482.945489 1457.90636,470.05461 Z M1485.81333,498.53272 L1539.27783,502.214821 C1539.27783,502.214821 1530.80462,586.398374 1534.23345,609.503429 C1537.74915,633.193821 1544.67759,631.109507 1569.93333,645.857654 C1595.18907,660.6058 1592.02594,674.028335 1592.15709,674.026924 C1507.23044,686.431275 1486.49024,686.177434 1411.52684,671.340443 C1411.5212,671.226215 1407.42872,647.345442 1435.01839,635.187881 C1462.60806,623.03032 1470.91993,611.507361 1478.68887,601.553984 C1480.63216,592.49751 1488.67186,551.395054 1485.81333,498.53272 Z M1410.67224,877.076951 C1456.76126,883.091566 1511.72201,883.497711 1586.63464,864.992721 C1590.59597,892.52739 1573.44918,924.896759 1541.44394,933.428184 C1525.99068,937.547458 1471.90161,943.535233 1451.27548,937.547455 C1415.57419,933.700358 1413.72397,904.73995 1410.67224,877.076951 Z M1423.86491,734.00385 L1437.07168,727.446297 L1452.12161,748.878917 L1478.59297,734.37897 L1483.69658,739.454374 L1461.42347,764.450636 L1493.40035,807.992784 L1476.13354,812.70576 L1446.51314,781.05041 L1430.27439,796.664436 L1421.86098,792.542344 L1438.94446,766.763407 L1423.86491,734.00385 Z M1508.67028,731.005709 L1522.48486,724.710458 L1546.11602,754.484567 L1564.72396,734.432559 L1573.69864,740.385124 L1554.79455,765.944066 L1583.74227,805.742063 L1564.96792,812.002057 L1542.04893,785.832487 L1524.82865,802.250342 L1517.80714,794.453201 L1532.20132,771.757018 L1508.67028,731.005709 Z" id="Path-12" fill="#000000" sketch:type="MSShapeGroup" transform="translate(1501.579504, 698.012136) rotate(97.000000) translate(-1501.579504, -698.012136) "></path>
        <path d="M1829.60985,711.184042 C1806.11227,716.529782 1774.17235,740.730917 1774.17235,740.730917 C1774.17235,740.730917 1779.11341,775.073526 1789.77391,802.949667 C1821.57519,802.949667 1871.71141,764.48873 1871.71141,764.48873 C1871.71141,764.48873 1855.17226,733.857066 1829.60985,711.184042 Z" id="Path-35" fill="#000000" sketch:type="MSShapeGroup" transform="translate(1822.941877, 757.066855) rotate(-75.000000) translate(-1822.941877, -757.066855) "></path>
    </g>
</svg>