<?xml version="1.0" encoding="UTF-8"?>
<svg width="2039px" height="1061px" viewBox="0 0 2039 1061" version="1.1" xmlns="http://www.w3.org/2000/svg" xmlns:xlink="http://www.w3.org/1999/xlink" xmlns:sketch="http://www.bohemiancoding.com/sketch/ns">
    <!-- Generator: Sketch 3.4.2 (15855) - http://www.bohemiancoding.com/sketch -->
    <title>Untitled 7</title>
    <desc>Created with Sketch.</desc>
    <defs></defs>
    <g id="Page-1" stroke="none" stroke-width="1" fill="none" fill-rule="evenodd" sketch:type="MSPage">
        <path d="M857.595853,239.778989 C640.307474,421.382913 639.699007,421.430033 639.699007,421.430033 C639.699007,421.430033 586.30549,388.077012 548.224043,415.951779 C526.773011,432.271814 526.870275,443.120248 531.555727,448.919643 C536.299519,454.791246 543.003907,457.121756 555.308487,449.222852 C571.083565,439.096068 585.133628,454.79125 585.133628,454.79125 L602.674694,470.394235 C602.674694,470.394235 602.674697,470.394232 168.929714,811.418636 C186.581412,825.784213 247.686277,911.321998 552.641065,672.036605 C652.614083,597.29141 570.31855,658.645968 669.167671,583.036497 C655.187265,536.325878 655.187265,538.972801 655.187265,538.972801 C655.187265,538.972801 655.496744,539.350272 687.298767,578.611269 C697.885483,591.681035 716.902647,601.737123 739.721194,583.036485 C762.539742,564.335848 751.49309,554.112778 751.49309,554.112778 C751.49309,554.112778 736.312138,554.11279 720.881244,536.325865 C705.381918,518.46006 709.088861,509.950755 709.088861,509.950755 C709.088861,509.950755 709.088861,509.950763 940.06673,313.78459 C955.544744,298.95192 961.758486,266.871148 940.06673,242.49558 C918.374974,218.120012 889.533215,213.95908 857.595853,239.778989 Z M613.696762,484.186161 L203.974971,806.616457 C203.974971,806.616457 253.50052,892.90818 649.274684,579.824106 C649.418094,579.791326 634.986971,511.495483 634.986971,511.495483 L613.696762,484.186161 Z" id="Path-9" fill="#000000" sketch:type="MSShapeGroup" transform="translate(561.515586, 530.106187) rotate(95.000000) translate(-561.515586, -530.106187) "></path>
        <path d="M1413.01734,205.348757 C1413.01734,205.348757 1423.43212,185.070963 1468.92086,185.070965 C1469.41919,185.047731 1455.04038,105.485557 1455.04038,105.485557 C1455.04038,105.485557 1497.03394,99.6253428 1534.0567,100.20885 C1547.47387,100.420315 1606.36015,107.870473 1606.36015,107.870473 C1606.36015,107.870473 1583.14729,189.756619 1583.38503,188.39441 C1616.0146,194.327456 1634.0063,205.794786 1633.56464,213.224827 L1634.17549,252.349575 C1634.17549,252.349575 1631.25987,262.500089 1616.01461,267.2136 C1600.76934,271.92711 1589.82169,271.909782 1589.82169,271.909782 L1580.87555,435.236433 C1580.87555,435.236433 1621.29132,476.141746 1641.93026,489.905373 C1662.5692,503.668999 1671.76662,520.075316 1676.44547,545.271808 C1681.12432,570.468299 1665.64078,852.347573 1665.64078,852.347573 C1665.64078,852.347573 1654.38555,926.87348 1580.87556,945.727526 C1507.36557,964.581572 1432.92847,960.130166 1432.92847,960.130166 C1432.92847,960.130166 1348.09392,967.854608 1332.46741,887.231026 C1316.84091,806.607444 1327.57195,556.076494 1327.57195,556.076494 C1327.57195,556.076494 1320.6923,491.408673 1383.94347,463.322552 C1447.19464,435.236432 1446.23287,348.084119 1446.23287,348.084119 L1441.4977,265.801279 L1418.20741,258.42342 C1418.20741,258.42342 1401.94406,256.486894 1407.4807,230.917826 C1413.01734,205.348757 1413.01734,205.348757 1413.01734,205.348757 Z M1433.56964,222.682177 C1433.56964,211.400941 1446.31302,200.085046 1465.71727,200.085046 C1491.35132,200.085046 1535.58391,200.932201 1582.85973,209.650703 C1605.96374,213.911492 1613.14232,214.388042 1613.14231,233.380722 C1613.1423,252.373402 1598.71368,254.842797 1582.85973,254.842797 C1567.00578,254.842797 1439.47236,245.359454 1439.47236,245.359454 C1439.47236,245.359454 1433.56964,242.482826 1433.56964,222.682177 Z M1476.43531,266.425126 L1558.55785,272.080907 C1558.55785,272.080907 1545.54283,401.388535 1550.80959,436.878364 C1556.20976,473.267282 1566.85199,470.065733 1605.64532,492.719183 C1644.43865,515.372633 1639.58,535.989915 1639.78145,535.987749 C1509.33241,555.041081 1477.47505,554.651176 1362.32976,531.86126 C1362.3211,531.685803 1356.03497,495.004457 1398.41326,476.330199 C1440.79154,457.655941 1453.55875,439.956444 1465.49199,424.667856 C1468.47692,410.756931 1480.82606,347.622732 1476.43531,266.425126 Z M1361.01708,847.876668 C1431.81074,857.115238 1516.23156,857.739085 1631.29886,829.315049 C1637.38354,871.608854 1611.04573,921.328854 1561.88504,934.433295 C1538.14852,940.760582 1455.06662,949.957925 1423.38447,940.760578 C1368.54657,934.851359 1365.7046,890.367591 1361.01708,847.876668 Z M1381.28129,628.113511 L1401.56715,618.040979 L1424.68415,650.961913 L1465.34469,628.689703 L1473.18394,636.485627 L1438.97199,674.880386 L1488.08912,741.762 L1461.56695,749.001226 L1416.06943,700.377973 L1391.12637,724.36143 L1378.20321,718.029815 L1404.44378,678.432849 L1381.28129,628.113511 Z M1511.54404,623.508306 L1532.76351,613.838675 L1569.06145,659.572304 L1597.64361,628.772016 L1611.4289,637.915276 L1582.39185,677.174324 L1626.85612,738.304847 L1598.01835,747.920325 L1562.81431,707.72334 L1536.36362,732.941494 L1525.57843,720.964929 L1547.68818,686.103137 L1511.54404,623.508306 Z" id="Path-12" fill="#000000" sketch:type="MSShapeGroup" transform="translate(1500.652465, 530.378053) rotate(27.000000) translate(-1500.652465, -530.378053) "></path>
    </g>
</svg>