<?xml version="1.0" encoding="UTF-8"?>
<svg width="387px" height="351px" viewBox="0 0 387 351" version="1.1" xmlns="http://www.w3.org/2000/svg">
    <g id="Page-1" stroke="none" stroke-width="1" fill="none" fill-rule="evenodd">
        <path d="M81.807,5.863 C79.407,4.563 73.887,5.863 71.007,5.863 L58.767,6.511 C49.407,6.943 39.807,6.727 30.687,7.591 C29.007,14.291 29.487,21.631 29.487,28.327 L29.487,49.279 C29.247,63.536 29.007,77.792 29.007,92.048 C29.007,103.712 29.487,115.376 29.967,127.041 C30.207,134.385 29.487,141.941 30.687,149.289 C35.727,150.153 43.647,149.289 47.247,149.073 C47.967,146.913 47.007,144.753 46.767,142.593 C46.7234982,140.142522 46.8035999,137.691409 47.007,135.249 C47.247,130.281 47.247,125.529 47.247,120.776 C47.247,111.488 47.487,102.2 47.247,93.128 C54.687,91.828 62.127,93.344 69.567,92.264 C71.247,88.164 69.567,84.056 70.047,78.656 C63.087,76.712 55.167,79.304 47.247,78.44 C46.047,57.487 47.007,44.74 46.767,22.927 C54.927,21.627 64.047,22.711 72.207,22.711 C74.607,22.711 79.168,23.143 81.088,21.847 C83.008,20.551 82.048,16.447 82.048,14.935 C81.807,11.911 81.807,8.887 81.807,5.863 L81.807,5.863 Z M93.807,28.763 C92.367,36.539 92.367,44.531 92.127,52.307 C91.887,59.652 90.927,66.78 91.167,73.907 C91.407,81.683 90.927,89.675 91.407,97.451 C91.887,104.579 93.567,111.275 93.327,118.187 C92.847,123.372 96.207,130.287 98.607,134.604 C100.767,138.704 103.647,142.812 107.727,145.404 C117.327,151.884 131.968,150.372 142.048,145.404 C150.688,140.868 156.208,132.444 158.848,123.804 C160.528,117.323 160.288,111.491 160.528,104.795 C161.008,98.963 162.448,93.347 162.688,87.295 C163.648,74.119 164.848,60.727 164.368,47.55 C164.128,37.398 160.768,24.222 152.128,17.31 C143.728,10.182 129.808,5.21 118.287,7.81 C107.257267,10.498069 98.1664992,18.2772648 93.806,28.759 L93.807,28.763 Z M116.127,25.739 C116.98602,24.8377661 118.059438,24.1689444 119.247,23.795 C127.888,19.043 140.608,23.795 144.928,31.787 C150.688,42.587 146.128,54.899 147.808,66.348 C149.488,77.58 148.048,89.248 147.328,100.692 C146.608,106.74 146.128,112.792 144.208,118.62 C143.008,122.941 142.048,127.045 137.968,129.853 C128.848,135.469 116.127,133.741 111.087,124.885 C109.647,122.292 109.167,119.268 108.687,116.244 C108.687,113.652 107.487,111.276 107.487,108.684 C106.767,103.068 107.727,97.452 107.967,91.836 C108.447,80.172 107.727,68.508 108.207,56.843 C108.207,51.227 107.487,44.963 109.407,39.563 C110.846,34.807 111.806,29.191 116.126,25.735 L116.127,25.739 Z M200.365,141.733 C204.205,143.677 206.845,146.269 210.925,147.565 C214.831974,149.052803 218.985771,149.785766 223.166,149.725 C230.126,149.725 239.006,150.157 244.766,145.189 C250.526,140.221 254.846,132.877 258.207,126.181 C261.541653,119.960452 263.039847,112.920326 262.527,105.881 C262.287,99.401 263.007,93.137 262.767,86.441 C262.287,80.609 262.767,74.341 262.287,68.513 C261.807,61.601 261.327,54.688 261.087,47.776 C261.172591,42.0296246 260.52742,36.2956737 259.167,30.712 C257.487,24.664 256.287,18.4 252.926,13.212 C249.806,8.028 244.526,6.948 239.726,3.712 C230.846,-2.768 213.806,3.28 205.405,7.812 C202.285,9.756 199.165,10.62 196.765,13.212 C195.009268,15.1789281 193.626682,17.4493517 192.685,19.912 C190.285,25.312 188.125,30.928 187.405,36.544 C186.685,42.592 187.165,48.208 187.165,54.256 C187.165,60.304 187.645,66.569 187.885,72.833 C188.605,85.793 189.565,98.533 191.005,111.497 C191.725,117.545 192.685,123.597 193.885,129.426 C194.365,131.802 194.365,134.394 195.805,136.338 C197.245,138.282 199.4,139.785 200.364,141.729 L200.365,141.733 Z M203.725,46.475 C203.965,43.667 204.445,40.859 204.685,38.267 C206.605,29.411 211.646,20.987 222.685,20.555 C228.445,20.123 234.925,21.855 239.245,25.739 C242.845,28.979 243.805,34.811 244.285,39.131 C246.205,50.795 245.485,62.244 246.925,73.692 C248.365,85.14 248.845,97.452 246.925,109.116 C245.485,118.404 239.005,128.341 227.725,130.716 C215.485,133.524 208.764,124.884 206.844,115.379 C204.924,104.795 206.844,93.347 204.444,82.979 C203.004,77.147 203.724,70.019 203.964,63.971 C203.964,58.135 203.244,52.087 203.724,46.471 L203.725,46.475 Z M287.484,147.997 C298.044,148.861 308.604,150.157 319.164,149.509 C327.564,149.077 337.164,149.293 343.645,143.893 C354.445,134.821 355.405,116.46 355.645,104.364 C355.885,90.756 353.965,77.364 353.005,63.756 C352.045,51.443 353.245,38.915 350.845,26.819 C349.645,21.419 347.485,17.099 342.445,14.075 C337.642416,10.9762572 332.245488,8.91489994 326.6,8.023 C320.12,7.159 313.4,7.375 306.44,6.723 C303.32,6.507 292.52,4.131 291.08,7.803 C290.36,9.963 291.08,13.203 291.08,15.363 C290.814091,17.9024633 290.413527,20.4260158 289.88,22.923 C289.16,28.971 288.92,35.235 288.44,41.283 C286.524896,53.9316331 285.801722,66.732151 286.28,79.516 C286.28,92.044 287.24,104.572 287.48,117.1 C287.608738,122.869793 287.368247,128.641913 286.76,134.381 C286.416364,136.7826 285.935241,139.16251 285.319,141.509 C285.082,144.321 286.283,145.4 287.483,147.993 L287.484,147.997 Z M306.444,23.579 C306.444,23.363 306.444,22.931 306.684,22.931 C313.404,22.715 324.444,23.363 330.205,27.031 C334.765,30.271 335.725,36.319 336.685,41.071 C337.885,47.119 337.885,85.784 337.885,98.744 C337.885,107.168 339.325,117.536 334.525,124.881 C328.044,134.381 313.644,132.009 303.325,132.009 C301.645,132.009 303.085,103.928 303.085,100.909 C303.805,87.949 303.805,74.989 304.525,62.029 C305.005,54.9 305.245,47.556 306.205,40.429 C306.683,34.807 306.2,29.191 306.443,23.575 L306.444,23.579 Z M26.608,310.84 C28.288,316.888 35.728,347.129 36.448,349.073 C40.3512142,349.531386 44.2790534,349.747799 48.209,349.721 C49.409,346.697 48.449,343.241 48.929,340.221 C49.169,337.413 71.009,225.091 72.209,219.043 C73.409,214.291 77.489,208.891 75.809,204.143 C70.769,203.063 64.769,204.791 59.249,204.143 C56.609,207.383 56.609,212.135 55.889,216.023 L53.489,228.335 C51.809,237.191 49.409,245.835 47.489,254.471 C45.329,263.112 44.849,271.971 43.169,280.608 L41.249,292.272 C40.529,295.728 40.769,299.616 39.089,302.856 C34.769,294.864 34.289,285.576 32.129,277.156 C29.969,268.084 28.529,259.011 26.369,250.156 C24.209,241.301 23.009,232.228 21.089,223.372 C20.609,219.484 20.609,205.872 18.449,203.932 C13.169,203.716 7.889,205.444 2.129,205.444 C1.649,206.744 0.689,208.468 0.929,209.98 C1.169,211.06 4.289,219.052 4.529,222.08 C5.489,227.48 6.209,232.88 7.169,238.28 C10.049,250.808 12.449,263.337 16.049,275.865 C19.168,287.728 23.728,298.96 26.608,310.84 L26.608,310.84 Z M120.927,323.153 C121.167,316.888 121.167,310.84 120.927,304.576 C120.207,293.992 119.967,283.408 119.727,272.608 C119.487,263.752 119.007,254.463 119.007,245.608 C119.007,234.16 118.767,216.448 116.367,211.048 C111.567,209.968 104.127,209.104 99.567,211.048 C98.367,214.936 100.047,219.256 100.287,222.928 C100.527,227.248 100.767,231.352 100.767,235.672 L100.767,253.384 C101.007,263.969 101.007,274.769 101.007,285.569 C101.247,300.257 101.007,315.161 101.968,329.85 L102.928,341.514 C103.408,344.106 102.208,347.778 105.808,349.074 C110.608,350.586 116.128,348.21 120.928,348.21 C121.887,339.785 120.927,331.361 120.927,323.153 L120.927,323.153 Z M202.527,276.28 C199.769082,271.780677 196.373432,267.704954 192.446,264.18 C199.887,256.835 204.446,248.627 204.207,238.475 C204.207,233.507 203.487,227.459 201.087,222.923 C199.167,219.035 195.566,215.795 192.206,212.987 C184.766,206.939 173.246,204.779 163.886,203.915 C158.938601,203.448543 153.966027,203.305572 149,203.487 C142.76,203.703 144.2,208.887 143.96,213.639 C143.24,236.967 144.68,260.296 145.88,283.624 C146.12,295.072 146.6,306.524 146.12,318.184 C145.88,323.584 145.88,328.984 146.12,334.384 C146.36,336.976 147.08,339.352 146.84,341.728 C146.6,343.888 146.12,346.048 148.04,347.56 C153.56,347.992 159.081,349.072 164.601,349.288 C170.601,349.288 176.121,350.368 181.641,348.856 C191.721,346.048 200.362,337.84 204.202,329.2 C208.762,317.967 207.082,305.223 206.122,293.775 C205.645,288.16 205.645,281.248 202.525,276.28 L202.527,276.28 Z M183.086,329.633 C177.661998,332.311869 171.533323,333.218577 165.566,332.225 C163.406,317.968 165.086,303.28 164.606,289.025 C164.366,285.569 164.126,281.897 164.126,278.441 C164.126,276.497 162.686,271.741 165.326,271.313 C169.406,270.881 175.406,273.257 179.726,274.337 C192.206,277.577 191.966,292.265 191.966,301.985 C192.2,311.272 191.484,323.369 183.084,329.633 L183.086,329.633 Z M181.886,249.711 C178.046,251.223 173.966,251.655 170.126,252.087 C169.406,252.087 163.166,252.303 163.166,253.167 C162.206,247.983 163.406,242.583 162.926,237.399 C162.526436,233.019002 162.366198,228.620462 162.446,224.223 C170.606,223.575 180.926,223.359 185.486,230.923 C189.324,237.4 190.284,246.039 181.884,249.711 L181.886,249.711 Z M251,334.385 C250.279,334.169 247.639,298.96 247.4,295.072 C247.360284,293.771377 247.440624,292.469864 247.64,291.184 C248.12,290.104 253.161,290.32 254.361,290.32 C257.961,290.104 261.561,290.104 265.161,289.672 C267.081,289.24 269.001,290.104 270.921,289.672 C272.158169,285.990715 272.567907,282.081813 272.121,278.224 C267.801,277.576 263.241,277.36 258.681,276.924 C255.801,276.492 251.961,278.004 249.56,276.924 C246.44,275.412 248.6,269.796 248.84,267.204 C248.84,264.828 248.6,262.668 248.6,260.504 C248.36,253.159 248.12,246.031 247.88,238.687 C247.64,233.719 246.92,227.887 248.12,222.703 C254.361,222.703 260.601,222.055 267.081,221.839 C273.561,221.839 280.041,222.703 286.281,220.975 C286.041,216.655 286.041,212.119 284.841,208.447 C270.681,207.583 257.241,208.231 243.32,208.447 C237.32,208.663 230.12,207.147 229.88,214.279 C229.64,225.511 230.6,236.527 230.84,247.759 C231.56,262.88 231.56,278 231.32,293.336 C231.32,299.6 231.32,305.864 231.08,312.344 C230.84,317.744 231.56,323.144 231.8,328.544 C232.04,334.376 232.04,340.856 233.24,346.688 C236.6,351.224 251.001,349.28 256.04,349.28 C265.16,349.064 274.76,348.2 283.88,349.28 C286.04,346.688 287.72,337.4 283.88,335.672 C273.084,335.249 261.564,336.977 251,334.385 L251,334.385 Z M385.4,307.385 C383.24,298.313 375.8,289.673 368.36,282.977 C359,274.553 347.479,267.209 338.599,258.784 C334.279,254.684 329.239,250.792 328.039,245.176 C326.359,238.476 329.239,231.352 334.039,226.168 C336.657311,223.47501 340.141861,221.792227 343.879,221.416 C348.16317,221.568359 352.319499,222.915009 355.879,225.304 C358.279,226.816 359.96,229.404 361.4,232.004 C362.36,233.732 361.88,237.836 363.56,239.132 C366.68,241.724 379.64,239.564 382.28,237.404 C385.64,234.164 377.96,222.284 376.04,218.396 C374.36,214.724 368.36,210.62 364.76,208.676 C360.68,206.732 355.879,205.868 351.079,205.22 C336.679,204.14 322.759,210.404 315.559,220.988 C308.838,230.924 309.798,246.908 314.599,256.844 C319.159,265.485 327.799,270.885 335.719,276.933 C346.039,285.141 355.639,293.565 362.6,304.149 C368.6,314.085 369.32,328.126 354.919,332.878 C341.479,337.198 331.639,326.178 332.119,315.597 C328.759,314.085 324.919,314.297 321.319,314.297 C316.279,314.945 313.399,314.297 312.198,319.265 C310.998,324.45 315.319,333.09 318.679,337.194 C322.759,341.946 330.199,347.13 336.679,349.074 C343.639,351.018 352.279,350.374 359.479,349.074 C366.199,347.346 374.359,342.81 378.919,338.274 C383.719,333.09 384.439,327.258 385.399,321.209 C386.479346,316.664023 386.479689,311.929133 385.4,307.384 L385.4,307.385 Z" id="Shape" fill="#FFFFFF"></path>
    </g>
</svg>
