<?xml version="1.0" encoding="UTF-8"?>
<svg width="2039px" height="1061px" viewBox="0 0 2039 1061" version="1.1" xmlns="http://www.w3.org/2000/svg" xmlns:xlink="http://www.w3.org/1999/xlink" xmlns:sketch="http://www.bohemiancoding.com/sketch/ns">
    <!-- Generator: Sketch 3.4.2 (15855) - http://www.bohemiancoding.com/sketch -->
    <title>Untitled 7</title>
    <desc>Created with Sketch.</desc>
    <defs></defs>
    <g id="Page-1" stroke="none" stroke-width="1" fill="none" fill-rule="evenodd" sketch:type="MSPage">
        <g id="Path-12-+-Path-35" sketch:type="MSLayerGroup" transform="translate(1301.000000, 363.000000)" fill="#000000">
            <path d="M207.967205,-93.7421566 C207.967205,-93.7421566 214.747572,-106.943673 244.362248,-106.943672 C244.686678,-106.958798 317.0937,-100.780689 317.248474,-101.667532 C338.491407,-97.8049219 351.838344,-93.451777 351.550808,-88.6145737 L351.948492,-63.143066 C351.948492,-63.143066 350.050328,-56.5347444 340.125155,-53.466093 C330.199982,-50.3974415 323.072698,-50.4087223 323.072698,-50.4087223 L317.248463,55.9223422 C317.248463,55.9223422 343.560466,82.553057 356.997102,91.513634 C370.433739,100.474211 376.42156,111.155267 379.467649,127.559019 C382.513737,143.96277 372.43344,327.475522 372.43344,327.475522 C372.43344,327.475522 365.105908,375.994359 317.248468,388.268968 C269.391027,400.543576 220.930006,397.645563 220.930006,397.645563 C220.930006,397.645563 165.699902,402.674432 155.526529,350.185807 C145.353157,297.697182 152.339418,134.593228 152.339418,134.593228 C152.339418,134.593228 147.86054,92.4923321 189.039148,74.2073366 C230.217755,55.9223411 229.591616,-0.816703559 229.591616,-0.816703559 L226.508861,-54.3855605 L211.346108,-59.1887914 C211.346108,-59.1887914 200.75813,-60.449534 204.362667,-77.0958452 C207.967204,-93.7421563 207.967205,-93.7421566 207.967205,-93.7421566 Z M221.347433,-82.4575256 C221.347433,-89.8019838 229.643794,-97.1690066 242.276602,-97.1690066 C258.96522,-97.1690066 287.762103,-96.617481 318.540231,-90.9414472 C333.581705,-88.167532 338.255201,-87.8572822 338.255195,-75.4924178 C338.255188,-63.1275535 328.861677,-61.5198955 318.540231,-61.5198955 C308.218784,-61.5198955 225.190299,-67.6938663 225.190299,-67.6938663 C225.190299,-67.6938663 221.347433,-69.5666463 221.347433,-82.4575256 Z M249.254401,-53.9794153 L302.718902,-50.2973144 C302.718902,-50.2973144 294.245693,33.8862385 297.674522,56.9912937 C301.190216,80.6816857 308.118658,78.5973712 333.374401,93.345518 C358.630144,108.093665 355.467007,121.516199 355.598158,121.514789 C270.671508,133.919139 249.93131,133.665299 174.96791,118.828308 C174.962269,118.714079 170.869792,94.8333068 198.45946,82.6757457 C226.049127,70.5181846 234.361002,58.9952253 242.129938,49.041848 C244.07323,39.9853745 252.11293,-1.11708176 249.254401,-53.9794153 Z M174.113312,324.564815 C220.202329,330.57943 275.163079,330.985576 350.075712,312.480586 C354.037037,340.015255 336.890251,372.384623 304.885009,380.916049 C289.431748,385.035322 235.342677,391.023097 214.716549,385.03532 C179.015259,381.188222 177.165042,352.227815 174.113312,324.564815 Z M187.30598,181.491714 L200.512749,174.934162 L215.562684,196.366781 L242.034043,181.866834 L247.137652,186.942239 L224.864537,211.9385 L256.841419,255.480648 L239.574608,260.193625 L209.954214,228.538274 L193.715458,244.1523 L185.302048,240.030209 L202.38553,214.251271 L187.30598,181.491714 Z M272.11135,178.493573 L285.925927,172.198323 L309.557089,201.972431 L328.165025,181.920423 L337.139706,187.872988 L318.235622,213.43193 L347.183337,253.229927 L328.408994,259.489922 L305.489996,233.320352 L288.269723,249.738207 L281.248206,241.941065 L295.642386,219.244883 L272.11135,178.493573 Z" id="Path-12" sketch:type="MSShapeGroup" transform="translate(265.020574, 145.500000) rotate(97.000000) translate(-265.020574, -145.500000) "></path>
            <path d="M593.050916,158.671907 C569.553344,164.017647 537.613416,188.218782 537.613416,188.218782 C537.613416,188.218782 542.554478,222.561391 553.214979,250.437532 C585.016262,250.437532 635.152479,211.976594 635.152479,211.976594 C635.152479,211.976594 618.613334,181.34493 593.050916,158.671907 Z" id="Path-35" sketch:type="MSShapeGroup" transform="translate(586.382947, 204.554719) rotate(-75.000000) translate(-586.382947, -204.554719) "></path>
            <path d="M306.550781,233.234375 C284.098191,234.155522 290.622978,244.380695 254.063477,241.617188 C238.380039,240.431687 59.5273437,219 44.9160158,219 C30.3046879,219 20,223.158203 20,235.900392 C20,248.64258 97.3456689,263.085939 199.164063,263.085937 C300.982456,263.085936 336.250004,256.61328 336.25,245.898437 C336.249996,235.183595 329.003371,232.313228 306.550781,233.234375 Z" id="Path-42" sketch:type="MSShapeGroup"></path>
        </g>
        <g id="Group" sketch:type="MSLayerGroup" transform="translate(558.000000, 127.000000)">
            <path d="M454.272599,546.013245 C223.667153,546.915695 -2.60111397,588.985145 0.0225985111,645.146057 C2.64631099,701.306969 232.528731,761.975021 464.319474,761.067932 C696.110216,760.160843 924.721349,692.614697 922.335099,641.536682 C919.948848,590.458667 684.878044,545.110794 454.272599,546.013245 Z" id="Path-36" fill="#000000" sketch:type="MSShapeGroup"></path>
            <path d="M454.272599,496.013245 C223.667153,496.915695 -2.60111397,538.985145 0.0225985111,595.146057 C2.64631099,651.306969 232.528731,711.975021 464.319474,711.067932 C696.110216,710.160843 924.721349,642.614697 922.335099,591.536682 C919.948848,540.458667 684.878044,495.110794 454.272599,496.013245 Z" id="Path-36" stroke="#000000" stroke-width="19" fill="#FFFFFF" sketch:type="MSShapeGroup"></path>
            <path d="M173.264579,600.64167 C176.078331,601.690478 179.032889,602.537314 182.030204,602.719795 C200.00109,603.813889 218.188231,601.93788 236.014579,604.461983 C247.772504,606.126833 257.743963,619.879715 265.366142,626.594795 C277.838096,637.582491 294.701722,644.149882 311.452079,642.383858 C339.208324,639.45746 357.975001,615.455844 384.217704,619.14167 C393.837402,620.492771 403.430352,622.669362 412.514579,626.11042 C440.629991,636.760393 459.245561,654.500847 488.209892,653.352608 C521.598021,652.028995 560.125089,622.471982 592.178642,630.790108 C612.44412,636.049144 624.255364,643.61646 646.788017,641.67292 C663.684139,640.215556 681.563928,629.342818 696.608329,624.64167 C707.512672,621.234228 758.657686,617.213902 759.100517,593.23542 C759.500283,571.588793 730.115536,537.418508 722.608329,523.821358 C717.061458,513.774794 725.382378,500.236823 717.577079,490.883858 C709.788928,481.55144 701.596964,475.573301 690.202079,471.633858 C672.67439,465.574179 650.901852,459.023798 631.702079,462.70417 C606.481615,467.538638 579.775366,478.33418 553.592704,473.751045 C440.687905,453.987666 541.448973,463.88168 444.725517,450.04792 C431.774032,448.195549 401.240047,444.072111 383.217704,446.196358 C376.585207,446.978113 370.075828,451.074634 363.514579,449.82917 C343.014058,445.937737 319.309437,423.573258 291.834892,431.805733 C263.922466,440.169414 220.616387,453.145105 200.030204,474.32917 C190.007812,484.642642 197.041684,503.998309 186.311454,512.36042 C184.590391,513.701652 182.450644,514.484406 180.342704,515.04792 C171.93446,517.295689 162.894923,517.406655 154.866142,520.76667 C139.580121,527.163814 117.557477,543.86243 118.006767,562.899483 C118.404149,579.737137 156.151702,571.970647 162.584892,571.930733 C164.450752,571.919156 165.725517,573.946358 167.295829,574.95417 C167.295829,574.95417 157.541576,594.78102 173.264579,600.64167 Z" id="Path-37" fill="#000000" sketch:type="MSShapeGroup"></path>
            <path d="M465.34375,0.875 C436.881903,12.0796127 439.612733,9.88006026 408.726562,28.4140625 C401.859926,32.5345558 394.394606,41.1618886 390.164062,47.2578125 C386.902009,51.9582086 383.64928,56.7990102 381.640625,62.15625 C360.727151,117.93411 440.760477,126.915353 476.03125,142.28125 C486.431664,146.812245 500.359251,153.046066 505.28125,164.867188 C509.438734,174.85218 490.025588,186.470579 486.414062,188.960938 C458.776994,208.018313 424.159495,214.042214 403.820312,242.554688 C378.960548,277.404337 432.730706,281.776849 444.75,300.953125 C446.473804,303.703381 446.868239,307.199926 446.921875,310.445312 C447.218565,328.397298 445.408106,346.346647 445.796875,364.296875 C445.823163,365.510638 447.364583,366.151042 448.148438,367.078125" id="Path-38" stroke="#000000" stroke-width="17" stroke-linecap="round" sketch:type="MSShapeGroup"></path>
            <path d="M310.351562,137.328125 C302.182292,140.554688 293.663255,143.007433 285.84375,147.007812 C277.638762,151.205402 269.700748,156.069831 262.492188,161.8125 C256.930204,166.24343 254.385393,173.48234 253.84375,180.25 C251.965085,203.72332 282.658851,199.257267 289.453125,216.9375 C294.489454,230.043162 274.024599,240.190989 272.5,253.34375 C270.89575,267.183657 294.03597,278.812355 295.085938,300.257812 C295.36553,305.968457 290.928958,312.395208 293.765625,317.359375 L294.640625,320.921875 C295.089389,321.707212 296.057292,322.046875 296.765625,322.609375" id="Path-39" stroke="#000000" stroke-width="17" stroke-linecap="round" sketch:type="MSShapeGroup"></path>
            <path d="M605,115 C620.911458,123.830729 637.233245,131.959546 652.734375,141.492188 C685.353344,161.551688 611.832699,199.240348 609.1875,206.585938 C602.92085,223.988122 639.70035,227.225986 642.84375,241.984375 C645.360012,253.798329 651.608372,278.557388 642.984375,293.101562 C642.37168,294.134858 625.433574,311.485692 627.445312,320.929688 C627.64355,321.860302 629.148438,321.778646 630,322.203125" id="Path-41" stroke="#000000" stroke-width="17" stroke-linecap="round" sketch:type="MSShapeGroup"></path>
        </g>
    </g>
</svg>