<?xml version="1.0" encoding="UTF-8"?>
<svg width="2039px" height="1061px" viewBox="0 0 2039 1061" version="1.1" xmlns="http://www.w3.org/2000/svg" xmlns:xlink="http://www.w3.org/1999/xlink" xmlns:sketch="http://www.bohemiancoding.com/sketch/ns">
    <!-- Generator: Sketch 3.4.2 (15855) - http://www.bohemiancoding.com/sketch -->
    <title>Untitled 7</title>
    <desc>Created with Sketch.</desc>
    <defs></defs>
    <g id="Page-1" stroke="none" stroke-width="1" fill="none" fill-rule="evenodd" sketch:type="MSPage">
        <path d="M975.514594,846.128879 C975.514594,846.128879 961.033247,962.638616 1008.4927,961.48062 C1055.95215,960.322623 1048.57285,860.397673 1048.57285,860.397673 C1048.57285,860.397673 1010.59051,432.135162 1029.30444,426.511741 C1095.84705,406.516095 1095.94451,402.317633 1106.70155,381.062305 C1117.4586,359.806977 1131.00641,94.3224594 1119.84751,70.6143794 C1108.68862,46.9062995 1081.27672,292.164213 1066.32105,292.164213 C1051.36538,292.164213 1059.34998,61.6760737 1046.83546,70.6143794 C1034.32094,79.5526852 1046.83546,320.687933 1017.58397,320.687933 C988.332481,320.687933 1004.14177,73.0507008 992.495753,70.6143794 C980.849731,68.1780581 987.897804,310.693308 969.808001,310.693308 C951.718197,310.693308 939.357981,55.3837612 925.754023,70.6143794 C912.150066,85.8449977 915.32043,341.065323 915.32043,371.696099 C915.32043,402.326875 926.539548,406.13896 969.808003,420.458582 C1013.07646,434.778204 975.514594,846.128879 975.514594,846.128879 Z" id="Path-9" fill="#000000" sketch:type="MSShapeGroup"></path>
        <path d="M690,314.8 C678,326 664.4,347.6 656.4,362 C626.8,407.6 594.8,453.2 562.8,497.2 C561.2,499.6 560.4,502 560.4,504.4 C560.4,514.8 568.4,529.2 575.6,538.8 L574.8,538.8 L579.6,546 C597.2,575.6 676.4,714.8 695.6,714.8 C700.4,714.8 714.8,695.6 718.8,686.8 C695.6,658 614,524.4 614,509.2 C614,486 716.4,354 726.8,328.4 L690,314.8 Z M1334,326.8 C1336.4,336.4 1340.4,344.4 1345.2,352.4 L1353.2,366.8 C1382.8,398.8 1441.2,502.8 1441.2,527.6 L1441.2,530.8 L1442,530 C1440.4,539.6 1347.6,681.2 1345.2,694.8 C1347.6,695.6 1349.2,696.4 1350.8,698 L1350,698 C1358.8,703.6 1369.2,710.8 1377.2,710.8 C1386.8,710.8 1386,700.4 1393.2,687.6 C1405.2,666.8 1470,562 1494,524.4 C1494,524.4 1494.8,523.6 1494.8,522.8 C1494.8,504.4 1366.8,309.2 1365.2,315.6 C1356.4,315.6 1338.8,322.8 1334,326.8 L1334,326.8 Z" id="&lt;---&gt;" fill="#000000" sketch:type="MSShapeGroup"></path>
    </g>
</svg>